<svg width="30" height="29" viewBox="0 0 30 29" fill="none" xmlns="http://www.w3.org/2000/svg">
<path d="M29.8152 5.5138C29.6341 5.25874 29.3448 5.10779 29.0375 5.10779H7.37979C7.33783 5.10779 7.29593 5.11041 7.25558 5.116L6.36426 2.47708C6.27188 2.20415 6.06845 1.9866 5.80702 1.88089L1.31497 0.0684659C0.819897 -0.130608 0.261244 0.119148 0.0668137 0.627004C-0.127281 1.13514 0.115824 1.70926 0.610629 1.90895L4.69045 3.55506L9.68422 18.339C9.46381 18.4179 9.27703 18.5916 9.19197 18.8346L7.7481 22.9539C7.65962 23.2065 7.69607 23.4872 7.84666 23.7066C7.99705 23.9261 8.24163 24.0568 8.5028 24.0568H9.24427C8.78478 24.582 8.5028 25.2736 8.5028 26.0341C8.5028 27.6696 9.79842 29 11.3905 29C12.9826 29 14.2783 27.6696 14.2783 26.0341C14.2783 25.2736 13.9963 24.582 13.5368 24.0568H19.8327C19.373 24.582 19.091 25.2736 19.091 26.0341C19.091 27.6696 20.3863 29 21.9787 29C23.5711 29 24.8665 27.6696 24.8665 26.0341C24.8665 25.2736 24.5845 24.582 24.1251 24.0568H25.0269C25.47 24.0568 25.829 23.688 25.829 23.2329C25.829 22.7779 25.4699 22.4091 25.0269 22.4091H9.64414L10.5383 19.858C10.6538 19.908 10.7786 19.9375 10.9091 19.9375H25.0267C25.4453 19.9375 25.8157 19.6598 25.9432 19.2507L29.9539 6.39836C30.048 6.09744 29.9963 5.76887 29.8152 5.5138ZM11.3905 27.3522C10.6827 27.3522 10.1071 26.7611 10.1071 26.0341C10.1071 25.3071 10.6827 24.7159 11.3905 24.7159C12.0984 24.7159 12.6739 25.3071 12.6739 26.0341C12.6739 26.7611 12.0984 27.3522 11.3905 27.3522ZM21.9787 27.3522C21.2708 27.3522 20.6952 26.7611 20.6952 26.0341C20.6952 25.3071 21.2708 24.7159 21.9787 24.7159C22.6864 24.7159 23.2621 25.3071 23.2621 26.0341C23.2621 26.7611 22.6864 27.3522 21.9787 27.3522ZM27.0243 9.30952H22.1124V7.08509H27.7183L27.0243 9.30952ZM25.6099 13.8407H22.1124V11.2867H26.407L25.6099 13.8407ZM15.7486 13.8407V11.2867H20.1872V13.8407H15.7486ZM20.1872 15.8181V17.9602H15.7486V15.8181H20.1872ZM9.33987 11.2867H13.8236V13.8407H10.2027L9.33987 11.2867ZM15.7486 9.30952V7.08509H20.1872V9.30952H15.7486ZM13.8235 7.08509V9.30952H8.67178L7.92045 7.08509H13.8235ZM10.8707 15.8181H13.8235V17.9602H11.5942L10.8707 15.8181ZM22.1124 17.9602V15.8182H24.9932L24.3249 17.9602H22.1124Z" fill="white"/>
</svg>
