<svg width="24" height="26" viewBox="0 0 24 26" fill="none" xmlns="http://www.w3.org/2000/svg">
<path d="M8.27952 14.9726C10.8314 5.29106 7.4661 0 7.4661 0C2.77884 8.25099 7.13211 14.8634 7.13211 14.8634C7.13211 14.8634 6.86188 8.49691 7.4856 5.40933C7.4856 5.40933 7.65569 12.3769 8.27952 14.9726Z" fill="#8DC73F"/>
<path d="M11.0866 9.04336C11.0866 9.04336 12.3341 6.03779 14.2339 4.56224C14.2339 4.56224 12.6178 8.63353 8.98834 13.3879C8.98834 13.3879 14.9711 11.8304 16.2754 0.736887C16.2754 0.736887 10.5859 3.86979 11.0866 9.04336Z" fill="#8DC73F"/>
<path d="M23.4481 14.1192C24.1393 14.9795 24.6497 16.478 21.9649 17.2589C21.9649 17.2589 17.0975 18.3608 14.2055 15.7923C14.2055 15.7923 10.9731 15.2731 9.49873 16.2567C9.49873 16.2567 9.6405 17.1038 10.0941 17.4863C10.0941 17.4863 14.2339 17.3224 16.2754 22.5959C16.2754 22.5959 17.2394 25.465 15.4531 25.9841C15.4531 25.9841 13.5411 26.2574 11.9735 24.5359C11.9735 24.5359 9.30914 21.8753 9.01667 17.459C9.01667 17.459 6.20961 17.459 1.70128 22.6233C1.70128 22.6233 1.02079 24.1441 0 22.8693C0 22.8693 1.81471 18.9073 8.05254 16.0928C8.05254 16.0928 11.37 14.0709 13.2981 12.4041C13.2981 12.4041 13.525 7.04856 19.0825 6.74804C19.0825 6.74804 20.5567 6.58413 20.1315 8.19617C20.1315 8.19617 19.6495 12.1308 13.7518 13.0052C13.7518 13.0052 12.249 14.0666 11.9372 14.8065C11.9372 14.8065 13.0429 15.0775 14.4607 14.8065C14.4607 14.8065 16.9045 12.4592 20.828 12.936C20.828 12.936 22.6533 13.1291 23.4481 14.1192Z" fill="#8DC73F"/>
</svg>
