<svg width="20" height="20" viewBox="0 0 20 20" fill="none" xmlns="http://www.w3.org/2000/svg">
<path d="M0.545846 8.48401C0.192503 7.52961 -0.0633659 6.5549 0.0138009 5.51928C0.0625379 4.88166 0.302161 4.33745 0.769223 3.8907C1.2769 3.41147 1.75615 2.90788 2.2557 2.42052C2.90552 1.77884 3.72187 1.7829 4.37169 2.42052C4.77377 2.81447 5.17179 3.21653 5.56981 3.6186C5.95564 4.00442 6.34554 4.39024 6.73137 4.78012C7.40963 5.46648 7.41369 6.26655 6.73543 6.94885C6.24807 7.4362 5.76476 7.92762 5.26927 8.40685C5.1393 8.53275 5.12712 8.63834 5.19616 8.79673C5.52107 9.57649 5.9922 10.271 6.52018 10.9208C7.58427 12.2285 8.78645 13.39 10.2201 14.2876C10.5288 14.4785 10.8659 14.6206 11.1867 14.7952C11.3533 14.8846 11.4629 14.8562 11.5969 14.7181C12.0803 14.2185 12.5757 13.7271 13.0712 13.2357C13.7211 12.594 14.5333 12.59 15.1832 13.2357C15.9792 14.0236 16.7712 14.8155 17.5591 15.6116C18.2211 16.2776 18.217 17.0939 17.551 17.764C17.1002 18.2189 16.625 18.6494 16.2026 19.1246C15.5852 19.815 14.8055 20.0424 13.9201 19.9937C12.6285 19.9246 11.4385 19.4941 10.2892 18.9377C7.7386 17.6991 5.56169 15.9811 3.73811 13.8124C2.38973 12.2041 1.2769 10.4578 0.545846 8.48401ZM20 9.93795C20 4.45928 15.5406 0 10.0617 0V1.89256C14.4968 1.89256 18.1074 5.50303 18.1074 9.93795H20ZM14.5577 9.93795H16.4503C16.4503 6.41682 13.583 3.54956 10.0617 3.54956V5.44211C11.2639 5.44211 12.393 5.90916 13.2418 6.75797C14.0906 7.60677 14.5577 8.73581 14.5577 9.93795Z" fill="#FBBB12"/>
</svg>
