<svg width="15" height="13" viewBox="0 0 15 13" fill="none" xmlns="http://www.w3.org/2000/svg">
<path d="M14.1667 0H0.833282C0.374146 0 0 0.364793 0 0.812454V2.43751C0 2.88517 0.374146 3.24996 0.833282 3.24996H14.1667C14.6259 3.24996 15 2.88517 15 2.43751V0.812454C15 0.364793 14.6259 0 14.1667 0Z" fill="white"/>
<path d="M14.1667 4.87502H0.833282C0.374146 4.87502 0 5.23981 0 5.68747V7.31253C0 7.76019 0.374146 8.12498 0.833282 8.12498H14.1667C14.6259 8.12498 15 7.76019 15 7.31253V5.68747C15 5.23981 14.6259 4.87502 14.1667 4.87502Z" fill="white"/>
<path d="M14.1667 9.75004H0.833282C0.374146 9.75004 0 10.1148 0 10.5625V12.1875C0 12.6352 0.374146 13 0.833282 13H14.1667C14.6259 13 15 12.6352 15 12.1875V10.5625C15 10.1148 14.6259 9.75004 14.1667 9.75004Z" fill="white"/>
</svg>
